<svg width="67" height="62" viewBox="0 0 67 62" fill="none" xmlns="http://www.w3.org/2000/svg">
<path fill-rule="evenodd" clip-rule="evenodd" d="M34.8967 0.282727C35.317 0.469151 35.6938 0.741584 36.003 1.08255L65.6884 29.8137C66.2459 30.4286 66.5521 31.2313 66.546 32.0622C66.546 32.9392 66.1985 33.7802 65.5799 34.4003C64.9614 35.0204 64.1224 35.3688 63.2476 35.3688H56.6509V58.5149C56.6509 59.3919 56.3034 60.2329 55.6848 60.853C55.0662 61.4731 54.2273 61.8215 53.3525 61.8215H35.6946L35.6744 61.2202L35.6379 58.2553C35.6166 57.2667 35.6227 56.2777 35.6561 55.2894C35.6632 54.4016 35.5643 53.5086 35.269 52.6716L34.9955 51.8962C34.5686 50.686 35.4272 49.401 36.649 49.017C38.267 48.5084 39.7519 47.614 40.9689 46.3948C45.1191 42.2343 45.1191 35.4615 40.9689 31.301C36.8187 27.1405 30.0627 27.1405 25.9125 31.301C21.7623 35.4615 21.7623 42.2343 25.9125 46.3948C27.1638 47.6492 28.6512 48.5204 30.2327 49.0156C31.4546 49.3982 32.3099 50.6821 31.8831 51.8919L31.6081 52.6716C31.3128 53.5086 31.2139 54.4016 31.221 55.2894C31.2468 56.098 31.2661 57.1761 31.2392 58.2553L31.2027 61.2202L31.1825 61.8215H13.7719C12.8971 61.8215 12.0582 61.4731 11.4396 60.853C10.821 60.2329 10.4735 59.3919 10.4735 58.5149V35.3688H3.87675C3.23306 35.3732 2.60215 35.1887 2.06179 34.838C1.52143 34.4873 1.09525 33.9857 0.835764 33.3952C0.576282 32.8046 0.494846 32.1509 0.601493 31.5145C0.708141 30.8781 0.998212 30.2869 1.43595 29.8137L31.1214 1.08255C31.4305 0.741584 31.8074 0.469151 32.2277 0.282727C32.648 0.0963018 33.1026 0 33.5622 0C34.0218 0 34.4764 0.0963018 34.8967 0.282727Z" fill="#3FB0AC"/>
</svg>
