<svg width="24" height="24" viewBox="0 0 24 24" fill="none" xmlns="http://www.w3.org/2000/svg">
<path d="M14.87 11.75C14.87 12.3671 14.687 12.9703 14.3442 13.4834C14.0014 13.9965 13.5141 14.3964 12.944 14.6325C12.3739 14.8686 11.7465 14.9304 11.1413 14.8101C10.5361 14.6897 9.98017 14.3925 9.54383 13.9562C9.10749 13.5198 8.81034 12.9639 8.68995 12.3587C8.56956 11.7535 8.63135 11.1261 8.8675 10.556C9.10364 9.98592 9.50354 9.49864 10.0166 9.15581C10.5297 8.81298 11.1329 8.63 11.75 8.63C12.5767 8.63257 13.3688 8.96211 13.9533 9.54667C14.5379 10.1312 14.8674 10.9233 14.87 11.75ZM21.5 7.46V16.04C21.5 17.4881 20.9248 18.8769 19.9008 19.9008C18.8769 20.9248 17.4881 21.5 16.04 21.5H7.46C6.01192 21.5 4.62315 20.9248 3.5992 19.9008C2.57525 18.8769 2 17.4881 2 16.04V7.46C2 6.01192 2.57525 4.62315 3.5992 3.5992C4.62315 2.57525 6.01192 2 7.46 2H16.04C17.4881 2 18.8769 2.57525 19.9008 3.5992C20.9248 4.62315 21.5 6.01192 21.5 7.46ZM16.43 11.75C16.43 10.8244 16.1555 9.91955 15.6413 9.14993C15.127 8.38031 14.3961 7.78046 13.541 7.42624C12.6858 7.07203 11.7448 6.97935 10.837 7.15993C9.92915 7.3405 9.09525 7.78623 8.44074 8.44074C7.78623 9.09525 7.3405 9.92915 7.15993 10.837C6.97935 11.7448 7.07203 12.6858 7.42624 13.541C7.78046 14.3961 8.38031 15.127 9.14993 15.6413C9.91955 16.1555 10.8244 16.43 11.75 16.43C12.9912 16.43 14.1816 15.9369 15.0593 15.0593C15.9369 14.1816 16.43 12.9912 16.43 11.75ZM17.99 6.68C17.99 6.4486 17.9214 6.22239 17.7928 6.02998C17.6643 5.83758 17.4815 5.68762 17.2677 5.59906C17.0539 5.51051 16.8187 5.48734 16.5917 5.53248C16.3648 5.57763 16.1563 5.68906 15.9927 5.85268C15.8291 6.01631 15.7176 6.22479 15.6725 6.45174C15.6273 6.6787 15.6505 6.91395 15.7391 7.12774C15.8276 7.34153 15.9776 7.52426 16.17 7.65282C16.3624 7.78138 16.5886 7.85 16.82 7.85C17.1303 7.85 17.4279 7.72673 17.6473 7.50731C17.8667 7.2879 17.99 6.9903 17.99 6.68Z" fill="#444444"/>
</svg>
