<svg width="264" height="48" viewBox="0 0 264 48" fill="none" xmlns="http://www.w3.org/2000/svg">
<path d="M14.1808 48C21.6538 48 26.6058 43.9832 26.6058 37.9356C26.6058 33.3321 23.7697 30.3083 18.1424 28.5482L11.4797 26.4721C9.31879 25.7951 8.14831 24.6217 8.14831 23.0421C8.14831 20.966 10.1741 19.3864 13.2354 19.3864C16.8368 19.3864 19.5379 21.3722 20.6634 24.5765L26.5158 21.8235C24.7151 16.859 19.673 13.2936 13.2354 13.2936C5.98743 13.2936 1.17048 17.3103 1.17048 23.3129C1.17048 27.7809 3.87157 31.0304 9.5889 32.8357L16.4317 35.002C18.4125 35.6339 19.628 36.5816 19.628 38.3418C19.628 40.3276 17.6022 41.9072 14.1808 41.9072C10.8494 41.9072 7.47304 39.7409 5.85238 35.8144L0 38.5674C1.84575 44.254 7.51806 48 14.1808 48ZM45.5351 22.8164V37.2135C45.5351 40.0568 43.6895 41.9072 41.0335 41.9072C38.3774 41.9072 36.5316 40.0568 36.5316 37.2135V22.8164H29.7789V37.8002C29.7789 43.8479 33.6054 48 39.2327 48C42.294 48 44.725 46.7814 45.9853 44.4797V47.4584H52.2879V22.8164H45.5351ZM69.7482 22.5456C66.732 22.5456 64.346 23.4482 63.0855 26.5172V22.8164H56.7829V47.4584H63.5357V34.1896C63.5357 30.534 65.7866 28.4128 69.0729 28.4128H72.3143V22.5456H69.7482ZM98.302 34.4153C98.302 27.6004 92.9898 22.2748 86.102 22.2748C79.0792 22.2748 73.677 27.7358 73.677 35.0923C73.677 42.2231 78.764 48 86.5522 48C91.5942 48 95.6459 45.608 97.1315 41.9974L91.7293 39.4249C90.7839 41.0948 89.0282 42.1328 86.6422 42.1328C83.3109 42.1328 81.105 40.147 80.6998 37.0329H97.9869C98.2119 36.356 98.302 35.4082 98.302 34.4153ZM80.8349 32.0684C81.5101 29.2251 83.4459 27.6906 86.102 27.6906C88.8932 27.6906 90.874 29.4508 91.1441 32.0684H80.8349ZM116.461 22.8164L110.879 38.432L105.297 22.8164H98.3191L107.953 47.4584H113.805L123.439 22.8164H116.461Z" fill="#444444"/>
<path d="M202.487 26.0547L212.797 13.6434H204.783L194.069 26.506V13.6434H187.091V47.2667H194.069V36.2545L197.986 31.5157L206.764 47.2667H214.597L202.487 26.0547ZM227.759 47.8083C235.052 47.8083 240.905 42.3924 240.905 34.9457C240.905 27.4989 235.052 22.0831 227.759 22.0831C220.466 22.0831 214.614 27.4989 214.614 34.9457C214.614 42.3924 220.466 47.8083 227.759 47.8083ZM227.759 41.7155C224.068 41.7155 221.592 38.9173 221.592 34.9457C221.592 31.0192 224.068 28.1759 227.759 28.1759C231.451 28.1759 233.927 31.0192 233.927 34.9457C233.927 38.9173 231.451 41.7155 227.759 41.7155ZM254.006 47.8083C259.903 47.8083 264 44.6942 264 40.1358C264 36.6156 261.659 34.0882 257.292 32.9147L252.745 31.6962C251.935 31.4705 250.224 31.0192 250.224 29.5299C250.224 28.2662 251.395 27.4989 253.376 27.4989C256.032 27.4989 258.148 28.7626 258.958 30.8838L264 28.537C262.424 24.5202 258.418 22.0831 253.376 22.0831C247.613 22.0831 243.697 25.1972 243.697 29.7555C243.697 33.1404 245.858 35.758 250.314 36.9315L254.636 38.0598C255.492 38.2854 257.472 38.7819 257.472 40.4066C257.472 41.7606 256.122 42.6181 254.006 42.6181C251.215 42.6181 249.009 41.1287 247.703 38.3757L242.706 40.7226C244.237 45.1906 248.649 47.8083 254.006 47.8083Z" fill="#444444"/>
<path fill-rule="evenodd" clip-rule="evenodd" d="M156.307 0.218883C156.633 0.363212 156.924 0.574128 157.164 0.838105L180.146 23.0816C180.577 23.5576 180.815 24.1791 180.81 24.8224C180.81 25.5013 180.541 26.1524 180.062 26.6325C179.583 27.1126 178.933 27.3823 178.256 27.3823H173.149V45.3019C173.149 45.9808 172.88 46.6319 172.401 47.112C171.922 47.5921 171.273 47.8618 170.595 47.8618H156.925L156.909 47.3963L156.881 45.1009C156.865 44.3355 156.869 43.5698 156.895 42.8047C156.901 42.1173 156.824 41.426 156.595 40.778L156.384 40.1777C156.053 39.2408 156.718 38.246 157.664 37.9486C158.916 37.5549 160.066 36.8624 161.008 35.9186C164.221 32.6975 164.221 27.4541 161.008 24.233C157.795 21.012 152.565 21.012 149.352 24.233C146.139 27.4541 146.139 32.6975 149.352 35.9186C150.32 36.8897 151.472 37.5642 152.696 37.9476C153.642 38.2438 154.304 39.2377 153.974 40.1744L153.761 40.778C153.533 41.426 153.456 42.1173 153.461 42.8047C153.481 43.4307 153.496 44.2654 153.476 45.1009L153.447 47.3963L153.432 47.8618H139.952C139.275 47.8618 138.626 47.5921 138.147 47.112C137.668 46.6319 137.399 45.9808 137.399 45.3019V27.3823H132.292C131.793 27.3857 131.305 27.2428 130.887 26.9713C130.468 26.6998 130.138 26.3115 129.937 25.8543C129.736 25.3971 129.673 24.891 129.756 24.3983C129.839 23.9056 130.063 23.4479 130.402 23.0816L153.384 0.838105C153.624 0.574128 153.915 0.363212 154.241 0.218883C154.566 0.0745545 154.918 0 155.274 0C155.63 0 155.982 0.0745545 156.307 0.218883Z" fill="#3FB0AC"/>
</svg>
