<svg width="176" height="149" viewBox="0 0 176 149" fill="none" xmlns="http://www.w3.org/2000/svg">
<g opacity="0.1" clip-path="url(#clip0_16_132)">
<path fill-rule="evenodd" clip-rule="evenodd" d="M175.228 23.2711C148.983 36.1996 135.86 51.3904 135.86 68.8438C147.047 70.1367 156.297 74.7154 163.611 82.5803C170.926 90.4451 174.583 99.5488 174.583 109.892C174.583 120.881 171.033 130.146 163.934 137.688C156.835 145.229 147.907 149 137.151 149C125.104 149 114.671 144.098 105.851 134.294C97.0306 124.49 92.6206 112.585 92.6206 98.5792C92.6206 56.5616 116.069 23.7022 162.966 0L175.228 23.2711ZM82.6076 23.2711C56.1472 36.1996 42.9172 51.3904 42.9172 68.8438C54.3188 70.1367 63.6766 74.7154 70.9909 82.5803C78.3051 90.4451 81.9622 99.5488 81.9622 109.892C81.9622 120.881 78.3589 130.146 71.1522 137.688C63.9455 145.229 54.9642 149 44.2079 149C32.1609 149 21.7813 144.098 13.0688 134.294C4.35621 124.49 0 112.585 0 98.5792C0 56.5616 23.3407 23.7022 70.0228 0L82.6076 23.2711Z" fill="#FFB71B"/>
</g>
<defs>
<clipPath id="clip0_16_132">
<rect width="176" height="149" fill="white"/>
</clipPath>
</defs>
</svg>
